name processed_emg_signals
 datacolumns 36
 datarows 16
 range 0.2937519999999999 0.3087519999999999 
 endheader
time	FP1_FX	FP1_FY	FP1_FZ	FP1_MX	FP1_MY	FP1_MZ	LIXO	FP2_FX34	FP2_FY14	FP2_FY23	FP2_FZ1	FP2_FZ2	FP2_FZ3	FP2_FZ4	FP3_FX12	FP3_FX34	FP3_FY14	FP3_FY23	FP3_FZ1	FP3_FZ2	FP3_FZ3	FP3_FZ4	LGLTMED	LRF	LADDLONG	LBF	LTA	LGM	RGLTMED	RRF	RADDLONG	RBF	RTA	RGM	FP2_FX12
0.2937519999999999	8.159761875867844	-6.458380818367004	-11.7456316947937	-25.57030618190765	14.095520973205566	-6.7635610699653625	0.3010604977607727	-2.4062298767805714	5.903554891452245	-7.786415639725419	6.397663688605235	-6.795032868790713	-3.854492204268354	-4.808181147096775	-3.5061515183284087	-17.862701467123316	-14.850982180247229	-5.323155104551915	2.0741943402791208	9.666526154734356	-145.2326983468629	-91.77328764790036	0.0157167911529541	-0.0059510208666324	-0.0199893210083246	0.0157167911529541	-0.0154116144403815	-0.006866562180221	-0.0209048613905906	-0.0294499136507511	-0.0813305899500846	-0.0239566676318645	-0.0163271557539701	0.0453192926943302	6.123171579388099
0.2947519999999999	1.6060121357440948	1.0643168352544308	-16.193637251853943	-34.84779000282288	19.550621509552	-3.513389825820923	0.1707484573125839	-2.562732660174504	6.962663972575456	-8.492488360474226	7.669248945709796	-8.146092932060128	-1.9471143186115116	-5.126077461372915	-2.0953922001480407	-20.68422162297702	-17.833605217796958	-6.648765792949689	3.0134518843354385	8.883811056963623	-140.30159504625772	-87.62490231140873	0.0056458357721567	-0.0199893210083246	0.0041199335828423	0.0132753467187285	-0.0022888556122779	0.0083924597129225	-0.009308005683124	-0.0425726734101772	-0.2275120168924331	-0.0209048613905906	0.0090028205886483	0.0502021797001361	7.336068270091403
0.2957519999999999	2.994583174586296	0.949874147772789	-18.825818598270416	-39.639124274253845	23.571373522281647	-4.764629527926445	0.1741054356098175	-2.562732660174504	6.766532714459572	-8.68861961859011	6.556612330807184	-6.715559032753617	-1.9471143186115116	-5.602921932787126	-2.0953922001480407	-21.057656266966205	-15.679488354823206	-5.033177640046745	2.54382311230728	7.944553990631107	-130.67419924813294	-81.28491126154768	0.0123598054051399	-0.009308005683124	-0.0199893210083246	0.0114442640915513	-0.0184634178876876	-0.0282291918992996	-0.0254825688898563	-0.0102235469967126	-0.2232394963502884	0.0248722024261951	0.058136872947216	0.0563057884573936	6.905685496357762
0.2967519999999999	4.291599988937378	-6.336309015750885	-22.426947951316837	-47.672998905181885	28.156709671020508	-7.671473175287247	0.3215076029300689	-2.6801098671202794	6.884211660860728	-8.139451521270757	6.397663688605235	-7.192403504167828	-1.3113216900592306	-6.795032868790713	-2.7592789381152727	-19.23196925704929	-11.951208546540784	-4.370372295847858	4.109252113539242	6.927024745708195	-119.79447152330432	-73.45776983831638	-0.0013733142986893	-0.0053406599909067	0.0639353021979332	0.0148012489080429	-0.0205996818840503	-0.0239566676318645	-0.0224307645112276	0.01449606847018	0.1316853612661361	-0.0035095773637294	-0.011749449186027	-0.0065613817423582	5.027652095630572
0.2977519999999999	2.9793240129947662	-18.17730963230133	-23.998627066612244	-52.304112911224365	31.284809112548828	-14.248111844062803	0.5723658800125122	-1.8584702543021336	5.432839584676685	-7.080342440147547	5.682397224015858	-6.318188882440381	-0.6755290615069498	-6.715559032753617	-2.8422647803611767	-15.746563376223662	-10.169919057588118	-5.323155104551915	5.205053059328748	5.361595505614332	-106.80140835280145	-64.92618071866673	0.0035095727071166	0.0175478719174861	0.0694285482168197	0.007171737961471	-0.0315861776471138	-0.011749449186027	-0.0090028252452611	-0.0642404854297638	0.6257724761962891	-0.0166323371231555	0.0007629487663507	0.025482565164566	3.893007035424887
0.2987519999999999	1.438162848353386	-14.011596143245695	-27.16487348079681	-59.10200476646423	35.22926568984985	-13.37071806192398	0.538490891456604	-2.6801098671202794	5.982007203166972	-7.041116284290183	6.159241695430069	-6.318188882440381	0.1192117241834012	-6.874507189891688	-0.1867178284922488	-10.186511692499266	-7.808675145297741	-5.861684320295353	5.361595505614332	2.9351804223307454	-95.60859191361124	-55.84668825977951	0.0141908880323171	0.0041199335828423	-0.116121158003807	-0.0038147578015923	-0.0248722080141305	-0.030060276389122	-0.044098574668169	-0.0581368766725063	-0.6071564555168152	-0.0651560276746749	0.0267032869160175	0.0160219706594944	3.501750076940056
0.2997519999999999	1.6899367794394493	-14.187075197696686	-28.576332330703732	-62.84809708595276	37.52574920654297	-12.706950306892397	0.5223163366317749	-3.0713668256051108	5.236708326560802	-7.001889649603754	4.887656438325507	-5.602921932787126	0.2781598813214714	-6.556610875615547	0.4771689094749831	-3.5061515183284087	-5.613132569057086	-7.808675145297741	5.909495978509085	0.3522221761758715	-82.69379901080356	-46.53238499780673	0.01449606847018	-0.0321965366601944	-0.1551842540502548	-0.0099183665588498	-0.0239566676318645	0.0163271501660347	-0.0218204036355018	-0.1374837905168533	-1.090257167816162	0.0245670229196548	0.0132753467187285	-0.0123598100617527	1.584590980364382
0.3007519999999999	1.8501564860343933	-14.248111844062803	-29.60631847381592	-65.32768607139587	38.89143168926239	-14.034485816955566	0.5629053115844727	-2.210601516938482	4.687540229241449	-5.864327777936751	4.490285802948392	-5.205551297410011	1.3907969812879628	-6.636085196716522	0.6846335150897431	3.091223066845373	-3.0447616074500843	-9.382837584933782	6.927024745708195	-1.1349356019132983	-69.85727637569107	-38.39215103842344	0.0108339032158255	-0.0166323371231555	-0.0154116144403815	0.0126649858430027	-0.0160219743847847	-0.0126649904996156	-0.0120546296238899	0.0447089299559593	-0.5976958870887756	0.0392156839370727	0.0260929241776466	0.1075761020183563	2.2497278097885958
0.3017519999999999	4.131380096077919	-12.584878504276276	-30.758371949195865	-68.15823316574097	39.90615606307984	-16.62851870059967	0.6663615107536316	-0.489070899605224	3.981467269078109	-5.864327777936751	4.967130759426482	-5.205551297410011	1.7086932955641032	-6.874507189891688	2.510321917875217	6.825585714662225	-0.2692643550354034	-8.5129056970909	7.005296446574789	-2.309007531983696	-54.7508854030948	-29.23439022273624	0.0032043922692537	0.0248722024261951	0.0498970001935958	0.0276188272982835	-0.0212100427597761	0.0032043922692537	-0.0270084701478481	-0.0910963639616966	0.0657663792371749	-0.060273140668869	0.0691233649849891	0.0367742404341697	2.2888536250374045
0.3027519999999999	6.496528536081314	-10.738536715507507	-31.44502937793732	-69.61547136306763	40.24185538291931	-18.673227727413177	0.7518119812011719	0.68469997584927	3.2753943089147697	-5.785875466222024	4.490285802948392	-4.808181147096775	1.7086932955641032	-5.920818247063266	3.838095393809681	9.93755492550804	0.7249436612629268	-8.844308369190344	7.240110593726968	-4.109251158091638	-41.52301142950637	-21.32897279912413	0.0138857075944542	-0.0096131861209869	0.0636301189661026	-0.0041199382394552	-0.0291447341442108	0.0074769183993339	0.0041199335828423	-0.0233463048934936	0.4621957838535309	-0.0279240123927593	-0.0236514862626791	-0.0508125461637973	2.093225026394663
0.3037519999999999	7.213702797889709	-8.884565532207489	-31.345844268798828	-69.9816882610321	40.03585875034332	-19.214923679828644	0.7795834541320801	2.093225026394663	3.8245621668195895	-5.668196519820867	4.490285802948392	-4.808181147096775	2.026589609840244	-5.6823962538881005	3.630630914819335	12.593101877376968	0.7249436612629268	-9.465688000122327	6.927024745708195	-4.18752238123443	-31.034635043153685	-15.53688508850064	0.0148012489080429	-0.0209048613905906	-0.0541695281863212	0.0059510162100195	0.0123598054051399	-0.0007629534229636	-0.0041199382394552	-0.022735945880413	0.2314793616533279	0.0038147531449794	-0.0685130134224891	0.0413519479334354	3.1496186949033813
0.3047519999999999	7.579918950796127	-6.984817236661911	-30.68207800388336	-68.9669668674469	39.00587558746338	-18.62745136022568	0.7591363191604614	2.3671047779337187	3.2753943089147697	-5.079802266644151	3.854493416928051	-4.649232989958705	2.1060636884092787	-4.25186235458159	3.755109804812605	14.252818722295046	0.1449889850889008	-11.122702371964806	6.770482299422611	-5.909495023061481	-23.75538740468392	-11.466768108808992	0.0077820988371968	-0.009308005683124	-0.0373846068978309	0.0193789564073085	-0.0852979347109794	0.0239566620439291	-0.0111390883103013	-0.0038147578015923	0.1875333786010742	0.0315861739218235	-0.0282291918992996	0.0154116097837686	2.993115911509449
0.3057519999999999	7.473105937242508	-5.878538265824318	-29.50713336467743	-66.82307124137878	37.48760223388672	-17.689020931720734	0.7267872095108032	2.5627333765764604	3.1577153625136134	-4.805218217984475	3.933967495497086	-4.490284832820635	2.026589609840244	-4.25186235458159	3.879588441557047	13.879382052315236	0.9320703313250788	-9.589964128577776	6.066038902518471	-5.674680398185501	-18.58947139009797	-8.727267655230435	0.0056458357721567	-0.0001525925472378	0.0172426924109458	0.007171737961471	-0.090791180729866	-0.0077821034938097	-0.0175478775054216	-0.0123598100617527	0.1921110898256302	0.0148012489080429	0.041962306946516	0.1475547403097152	3.7365042520309535
0.3067519999999999	6.832227110862732	-4.955367371439934	-28.149080276489254	-64.36637043952942	35.81673800945282	-16.64377748966217	0.6816204786300659	0.958579846788652	2.843905157996573	-5.158255057187944	3.775019338359016	-4.25186235458159	1.9471155312712085	-5.285025618510986	3.921081489304413	6.369163455685339	0.1035636510764703	-5.695982984245632	4.26579551527243	-4.030979934948846	-10.762325189628656	-6.379123317365838	0.0184634141623973	-0.0126649904996156	-0.0288395546376705	0.0111390836536884	-0.15152208507061	0.02059967815876	-0.011749449186027	-0.0852979347109794	0.1438925713300705	-0.0321965366601944	-0.0004577729851007	-0.0105287274345755	2.093225026394663
0.3077519999999999	6.443122029304504	-3.99404875934124	-26.913100481033325	-61.89440488815308	34.13061797618866	-15.201801061630247	0.6334019899368286	0.4108201049098881	2.4516426417648063	-4.256050599494188	3.139226709806735	-3.616069968561249	2.026589609840244	-4.887654983133871	2.717786650114391	3.340180340334257	0.1449889850889008	-3.583291076029837	3.169994808344825	-3.874436772077559	-3.3265365380447065	-4.8919657781385695	0.0093080010265111	0.0340276174247264	0.0572213307023048	0.0086976401507854	-0.1319905370473861	-0.0160219743847847	-0.0331120789051055	-0.0181582383811473	0.1280231922864914	-0.0431830361485481	0.0160219706594944	-0.093232624232769	0.958579846788652
0.3087519999999999	5.786984041333199	-2.895399369299412	-25.814449787139893	-59.56740379333496	32.77256488800049	-13.37834745645523	0.5595483183860779	-0.1760653328173589	2.2162847489624937	-3.903014239119784	1.9471155312712085	-4.013440361406424	2.1060636884092787	-4.410810996783539	1.514491937548783	-2.2198708368924827	-2.216254927201476	-2.83763506380609	2.622094574311973	-3.4048080000494	2.778637498321359	-2.9351792280212408	0.0056458357721567	-0.0050354795530438	0.0309758111834526	0.0019836705178022	0.0126649858430027	0.004730294458568	-0.0187685992568731	-0.0215152241289615	0.1063553839921951	-0.0047302991151809	0.009613181464374	-0.0120546296238899	0.68469997584927
